<svg viewBox="0 0 120 32" fill="none" xmlns="http://www.w3.org/2000/svg">
  <path d="M36.652 16.004c0-4.276-2.884-7.09-6.85-7.09-3.965 0-6.849 2.814-6.849 7.09 0 4.275 2.884 7.09 6.85 7.09 3.965 0 6.849-2.815 6.849-7.09zm-10.87 0c0-2.746 1.614-4.482 4.02-4.482 2.407 0 4.021 1.736 4.021 4.482 0 2.745-1.614 4.481-4.02 4.481-2.407 0-4.021-1.736-4.021-4.481zM49.252 16.004c0-4.276-2.884-7.09-6.85-7.09-3.965 0-6.849 2.814-6.849 7.09 0 4.275 2.884 7.09 6.85 7.09 3.965 0 6.849-2.815 6.849-7.09zm-10.87 0c0-2.746 1.614-4.482 4.02-4.482 2.407 0 4.021 1.736 4.021 4.482 0 2.745-1.614 4.481-4.02 4.481-2.407 0-4.021-1.736-4.021-4.481zM58.858 9.228h-2.747v13.552h2.747v-5.72c0-2.262 1.27-3.514 3.194-3.514 1.924 0 3.194 1.252 3.194 3.514v5.72h2.747v-6.203c0-3.583-2.13-5.663-5.182-5.663-1.993 0-3.332.863-3.953 2.193V9.228zM71.458 22.78h2.747V9.228h-2.747V22.78zm1.373-15.426c.966 0 1.752-.76 1.752-1.7 0-.94-.786-1.7-1.752-1.7-.965 0-1.751.76-1.751 1.7 0 .94.786 1.7 1.751 1.7zM88.058 22.78h2.747V3.228h-2.747V22.78zM104.658 22.78h2.747V9.228h-2.747v1.667c-.621-1.33-1.96-1.98-3.953-1.98-3.607 0-6.112 2.814-6.112 7.09 0 4.275 2.505 7.09 6.112 7.09 1.993 0 3.332-.65 3.953-1.98v1.666zm-3.47-2.4c-2.406 0-4.02-1.736-4.02-4.376 0-2.64 1.614-4.376 4.02-4.376 2.407 0 4.021 1.736 4.021 4.376 0 2.64-1.614 4.376-4.02 4.376z" fill="currentColor"/>
  <path d="M15.073 2.5a6.25 6.25 0 00-5.916 4.239A6.25 6.25 0 004.5 11.25a6.25 6.25 0 00.843 3.125A6.25 6.25 0 004.5 17.5a6.25 6.25 0 004.657 6.011A6.25 6.25 0 0015.073 27.5a6.25 6.25 0 005.916-4.239A6.25 6.25 0 0025.646 18.75a6.25 6.25 0 00-.843-3.125 6.25 6.25 0 00.843-3.125 6.25 6.25 0 00-4.657-6.011A6.25 6.25 0 0015.073 2.5zm0 2.083a4.167 4.167 0 013.906 2.709l.156.469.469.156a4.167 4.167 0 012.709 3.906 4.167 4.167 0 01-.573 2.083l-.26.469.26.469a4.167 4.167 0 01.573 2.083 4.167 4.167 0 01-2.709 3.906l-.469.156-.156.469a4.167 4.167 0 01-3.906 2.709 4.167 4.167 0 01-3.906-2.709l-.156-.469-.469-.156A4.167 4.167 0 016.583 17.5a4.167 4.167 0 01.573-2.083l.26-.469-.26-.469a4.167 4.167 0 01-.573-2.083 4.167 4.167 0 012.709-3.906l.469-.156.156-.469a4.167 4.167 0 013.906-2.709z" fill="currentColor"/>
</svg>
