<svg viewBox="0 0 140 32" fill="none" xmlns="http://www.w3.org/2000/svg">
  <path d="M16.988 28.765c-.732.95-2.26.444-2.285-.756l-.376-17.86h11.983c2.168 0 3.363 2.514 1.992 4.187l-11.314 14.43z" fill="currentColor"/>
  <path d="M16.988 28.765c-.732.95-2.26.444-2.285-.756l-.376-17.86h11.983c2.168 0 3.363 2.514 1.992 4.187l-11.314 14.43z" fill="currentColor" fill-opacity=".2"/>
  <path d="M14.012 3.235c.732-.95 2.26-.444 2.285.756l.188 17.86H4.69c-2.168 0-3.363-2.514-1.992-4.187l11.314-14.43z" fill="currentColor"/>
  <path d="M46.5 21.5c-1.5 1.2-3.5 1.8-5.8 1.8-4.5 0-7.3-2.5-7.3-6.5 0-3.8 2.8-6.5 6.8-6.5 3.8 0 6.3 2.5 6.3 6.2v1.2H36.2c.3 2 1.8 3.2 4.5 3.2 1.5 0 3-.4 4.3-1.2l1.5 1.8zm-2.8-6.5c-.2-1.8-1.5-2.8-3.5-2.8-2 0-3.3 1-3.7 2.8h7.2zM60.5 22.78h-2.747v-1.667c-.621 1.33-1.96 1.98-3.953 1.98-3.607 0-6.112-2.814-6.112-7.09 0-4.275 2.505-7.09 6.112-7.09 1.993 0 3.332.65 3.953 1.98V9.228h2.747V22.78zm-6.217-2.4c2.406 0 4.02-1.736 4.02-4.376 0-2.64-1.614-4.376-4.02-4.376-2.407 0-4.021 1.736-4.021 4.376 0 2.64 1.614 4.376 4.02 4.376zM75.5 16.004c0 4.275-2.505 7.09-6.112 7.09-1.993 0-3.332-.65-3.953-1.98v6.666h-2.747V9.228h2.747v1.667c.621-1.33 1.96-1.98 3.953-1.98 3.607 0 6.112 2.814 6.112 7.09zm-2.83 0c0-2.64-1.614-4.376-4.02-4.376-2.407 0-4.021 1.736-4.021 4.376 0 2.64 1.614 4.376 4.02 4.376 2.407 0 4.021-1.736 4.021-4.376zM88.5 22.78h-2.747v-1.667c-.621 1.33-1.96 1.98-3.953 1.98-3.607 0-6.112-2.814-6.112-7.09 0-4.275 2.505-7.09 6.112-7.09 1.993 0 3.332.65 3.953 1.98V9.228h2.747V22.78zm-6.217-2.4c2.406 0 4.02-1.736 4.02-4.376 0-2.64-1.614-4.376-4.02-4.376-2.407 0-4.021 1.736-4.021 4.376 0 2.64 1.614 4.376 4.02 4.376zM101.5 10.5c-1.2-.5-2.5-.8-3.8-.8-1.8 0-2.8.6-2.8 1.6 0 1 .8 1.4 2.5 1.6l1.3.2c3 .4 4.8 1.8 4.8 4.2 0 3-2.5 4.8-6.3 4.8-2.2 0-4.2-.5-5.8-1.5l1.2-2.2c1.3.8 2.8 1.2 4.5 1.2 2 0 3.2-.6 3.2-1.8 0-1-.8-1.5-2.8-1.8l-1.3-.2c-3-.4-4.5-2-4.5-4.2 0-2.8 2.3-4.5 5.8-4.5 2 0 3.8.4 5.2 1.2l-1.2 2.2zM115.5 21.5c-1.5 1.2-3.5 1.8-5.8 1.8-4.5 0-7.3-2.5-7.3-6.5 0-3.8 2.8-6.5 6.8-6.5 3.8 0 6.3 2.5 6.3 6.2v1.2h-10.3c.3 2 1.8 3.2 4.5 3.2 1.5 0 3-.4 4.3-1.2l1.5 1.8zm-2.8-6.5c-.2-1.8-1.5-2.8-3.5-2.8-2 0-3.3 1-3.7 2.8h7.2z" fill="currentColor"/>
</svg>
