<svg viewBox="0 0 116 32" fill="none" xmlns="http://www.w3.org/2000/svg">
  <path d="M16 4L30 28H2L16 4z" fill="currentColor"/>
  <path d="M52.5 22.78h-3.2l-5.5-13.55h3.1l3.95 10.35 3.95-10.35h3.1l-5.4 13.55zM68.5 21.5c-1.5 1.2-3.5 1.8-5.8 1.8-4.5 0-7.3-2.5-7.3-6.5 0-3.8 2.8-6.5 6.8-6.5 3.8 0 6.3 2.5 6.3 6.2v1.2H58.2c.3 2 1.8 3.2 4.5 3.2 1.5 0 3-.4 4.3-1.2l1.5 1.8zm-2.8-6.5c-.2-1.8-1.5-2.8-3.5-2.8-2 0-3.3 1-3.7 2.8h7.2zM82.5 10.228v2.8c-.4-.1-.8-.1-1.2-.1-2.5 0-4 1.5-4 4.2v5.65h-2.8V10.228h2.8v2.2c.7-1.6 2.2-2.4 4.2-2.4.4 0 .7 0 1 .2zM95.5 21.5c-1.2.9-2.8 1.4-4.5 1.4-3.5 0-5.5-1.8-5.5-4.8 0-2.8 2-4.5 5.5-4.8l4-.4v-.4c0-1.6-1-2.5-3-2.5-1.5 0-3 .5-4.2 1.3l-1.3-2c1.7-1.1 3.7-1.7 5.8-1.7 3.8 0 5.8 1.8 5.8 5v8.2h-2.6v-1.3zm-.5-5.3l-3.2.3c-2 .2-3 1-3 2.3 0 1.4 1 2.2 2.8 2.2 2.2 0 3.4-1.2 3.4-3.2v-1.6zM101.5 22.78V3.228h2.8V22.78h-2.8z" fill="currentColor"/>
</svg>
